<svg width="104" height="29" viewBox="0 0 104 29" fill="none" xmlns="http://www.w3.org/2000/svg">
<g clip-path="url(#clip0_164_10)">
<path d="M14.672 22.267V21.128H21.162V28.758H0V22.268H1.72601V6.456H0V0H21.163V7.6H14.673V6.456H9.633V11.156H10.807V10.012H17.263V18.746H10.806V17.607H9.632V22.268L14.672 22.267ZM16.26 23.855H8.04401V16.019H12.359V17.158H15.673V11.565H12.359V12.739H8.04401V4.868H16.26V6.042H19.574V1.554H1.58801V4.868H3.314V23.855H1.58801V27.17H19.574V22.716H16.26V23.855Z" fill="white"/>
<path d="M30.934 23.579H35.077V22.198H40.255V28.757H23.234V23.579H24.615V10.909H23.234V5.73099H32.314V10.909H30.934V23.579ZM31.072 7.00799H24.513V9.66599H25.894V24.856H24.513V27.48H39.013V23.48H36.355V24.861H29.692V9.66698H31.073L31.072 7.00799Z" fill="white"/>
<path d="M51.266 10.909V5.73099H60.76V10.909H58.689L54.512 23.579H55.689V28.757H43.429V23.579H44.429L40.217 10.909H38.389V5.73099H47.641V10.909H46.916L49.471 18.573L52.026 10.909H51.266ZM45.121 9.66599H46.398V7.00799H39.666V9.66599H41.081L46.156 24.856H44.706V27.48H54.406V24.856H52.789L57.829 9.66599H59.521V7.00799H52.509V9.66599H53.789L49.474 22.647L45.121 9.66599Z" fill="white"/>
<path d="M75.743 10.909H74.535L78.747 23.579H80.128V28.757H71.29V23.579H72.084L71.739 22.509H67.32L66.94 23.579H67.7V28.757H58.9V23.579H60.281L64.493 10.909H63.493V5.73099H75.749L75.743 10.909ZM64.73 9.66599H66.214L61.139 24.856H60.172V27.48H66.421V24.856H65.178L66.386 21.231H72.635L73.843 24.856H72.566V27.48H78.849V24.856H77.882L72.807 9.66599H74.464V7.00799H64.728L64.73 9.66599ZM72.014 19.366H67.008L69.528 11.84L72.014 19.366ZM70.565 18.331L69.529 15.189L68.459 18.331H70.565Z" fill="white"/>
<path d="M89.899 18.47V23.579H91.314V28.757H82.199V23.579H83.58V10.909H82.199V5.73099H89.691L96.009 16.26V10.909H94.6281V5.73099H103.708V10.909H102.327V23.579H103.708V28.757H96.078L89.899 18.47ZM88.799 7.00799H83.4821V9.66599H84.863V24.856H83.4821V27.48H90.076V24.856H88.661V13.636L96.981 27.48H102.47V24.856H101.089V9.66698H102.47V7.00799H95.911V9.66599H97.292V21.166L88.799 7.00799Z" fill="white"/>
</g>
<defs>
<clipPath id="clip0_164_10">
<rect width="103.707" height="28.758" fill="white"/>
</clipPath>
</defs>
</svg>
